<svg xmlns="http://www.w3.org/2000/svg" viewBox="0 0 920 210" font-family="-apple-system,BlinkMacSystemFont,'Segoe UI','Microsoft YaHei',sans-serif">
  <defs>
    <marker id="a2" markerWidth="9" markerHeight="9" refX="7" refY="3" orient="auto" markerUnits="strokeWidth">
      <path d="M0,0 L7,3 L0,6 Z" fill="#5b6470"/>
    </marker>
  </defs>
  <rect x="1" y="1" width="918" height="208" rx="12" fill="#fbfbfa" stroke="#e4e4e2"/>
  <text x="22" y="32" font-size="15" font-weight="700" fill="#2c1a45">Phase 2 · 网易腿：两道模糊匹配（同曲风 · 异歌手）</text>

  <!-- box 1 -->
  <rect x="15" y="66" width="165" height="72" rx="8" fill="#fff" stroke="#cfcfcb"/>
  <text x="97" y="98" font-size="12.5" fill="#1a1a1a" text-anchor="middle" font-weight="600">B站脏标题</text>
  <text x="97" y="118" font-size="11" fill="#6b6b66" text-anchor="middle">种子歌名</text>

  <!-- box 2 -->
  <rect x="256" y="66" width="165" height="72" rx="8" fill="#f3eefb" stroke="#cbb9ec"/>
  <text x="338" y="98" font-size="12.5" fill="#2c1a45" text-anchor="middle" font-weight="600">网易曲目 id</text>
  <text x="338" y="118" font-size="11" fill="#5b4b7a" text-anchor="middle">search</text>

  <!-- box 3 -->
  <rect x="497" y="66" width="165" height="72" rx="8" fill="#f3eefb" stroke="#cbb9ec"/>
  <text x="579" y="98" font-size="12.5" fill="#2c1a45" text-anchor="middle" font-weight="600">相似歌名 × K</text>
  <text x="579" y="118" font-size="11" fill="#5b4b7a" text-anchor="middle">simiSong</text>

  <!-- box 4 -->
  <rect x="738" y="66" width="167" height="72" rx="8" fill="#fff" stroke="#cfcfcb"/>
  <text x="821" y="98" font-size="12.5" fill="#1a1a1a" text-anchor="middle" font-weight="600">B站单曲候选</text>
  <text x="821" y="118" font-size="11" fill="#6b6b66" text-anchor="middle">回搜 + 净化</text>

  <!-- arrows -->
  <line x1="180" y1="102" x2="256" y2="102" stroke="#5b6470" stroke-width="1.4" marker-end="url(#a2)"/>
  <text x="218" y="92" font-size="11" fill="#5b6470" text-anchor="middle">去程</text>
  <line x1="421" y1="102" x2="497" y2="102" stroke="#5b6470" stroke-width="1.4" marker-end="url(#a2)"/>
  <text x="459" y="92" font-size="11" fill="#5b6470" text-anchor="middle">simiSong</text>
  <line x1="662" y1="102" x2="738" y2="102" stroke="#5b6470" stroke-width="1.4" marker-end="url(#a2)"/>
  <text x="700" y="92" font-size="11" fill="#5b6470" text-anchor="middle">回程</text>

  <!-- note -->
  <text x="22" y="180" font-size="11.5" fill="#6b6b66">去程用清洗后的标题搜网易（不带 UP 名）　·　回程相似歌名回搜 B站并过单曲净化　·　任一步失败 → 静默返空；回程撞 -412/-352 → 熔断 10min</text>
</svg>
